<svg height="72" width="180" xmlns="http://www.w3.org/2000/svg"><g fill="none" fill-rule="evenodd"><path d="m71.657 35.83c0-19.78-16.041-35.815-35.828-35.815-19.789.001-35.829 16.035-35.829 35.814 0 11.098 5.051 21.016 12.98 27.584v-21.5h-5.524l17.142-14.175 9.255 7.684v-10.215h-5.524l17.142-14.174 16.893 14.025h-5.224v39.559c8.806-6.526 14.517-16.989 14.517-28.788" fill="#009ecc"/><path d="m45.455 10.973-17.128 14.203h5.52v10.236l-9.248-7.7-17.129 14.204h5.518v21.543a35.668 35.668 0 0 0 13.65 7.048v-21.85h-5.52l12.727-10.554 1.619-1.342 2.782-2.308 16.88 14.054h-5.22v20.308a35.738 35.738 0 0 0 7.207-4.15v-39.638h5.22l-16.877-14.054z" fill="#fff"/><path d="m38.412 34.553-2.788 2.299-1.624 1.338-12.755 10.516h5.532v21.775c.287.076.577.143.868.212a35.92 35.92 0 0 0 6.356.924 35.865 35.865 0 0 0 16.097-2.82v-20.24h5.233z" fill="#f7941e"/><path d="m83.346 18.41c0-4.024 1.897-6.036 5.69-6.036.828 0 1.642.116 2.443.347.8.232 1.2.512 1.2.84 0 .247-.133.576-.4.983s-.502.61-.706.61c-.035 0-.16-.045-.376-.135-.624-.271-1.362-.407-2.214-.407-1.964 0-2.946 1.28-2.946 3.84s.97 3.84 2.913 3.84c.454 0 .896-.04 1.328-.118v-2.154h-1.499c-.34 0-.51-.282-.51-.847v-.543c0-.565.17-.847.51-.847h3.458c.454 0 .681.225.681.678v4.713c0 .271-.145.503-.434.694-.29.193-.662.329-1.116.408-.817.157-1.624.238-2.418.238-1.908 0-3.319-.495-4.233-1.484s-1.37-2.53-1.37-4.62m12.606 5.56v-10.685c0-.452.222-.678.668-.678h3.251c2.768 0 4.152 1.063 4.152 3.188 0 .634-.175 1.186-.525 1.654-.35.47-.825.817-1.426 1.043v.069c.212.078.428.268.65.568.223.299.406.63.55.991l1.468 3.732c.056.147.084.254.084.322 0 .227-.334.34-1 .34h-.684c-.556 0-.88-.12-.967-.358l-1.318-3.306c-.19-.373-.392-.636-.609-.79-.216-.152-.575-.228-1.075-.228h-.651v4.138c0 .362-.333.544-1 .544h-.567c-.667 0-1-.182-1-.544zm2.568-6.393h1.585c.344 0 .644-.142.9-.424a1.48 1.48 0 0 0 .384-1.026c0-.402-.125-.719-.376-.95-.25-.233-.591-.348-1.026-.348h-1.467zm9.563 5.368c-.928-1.045-1.391-2.546-1.391-4.501 0-1.956.463-3.456 1.39-4.502s2.256-1.568 3.988-1.568c1.731 0 3.057.522 3.979 1.568.92 1.046 1.382 2.546 1.382 4.502 0 1.955-.461 3.456-1.382 4.5-.922 1.047-2.248 1.57-3.979 1.57-1.732 0-3.06-.523-3.987-1.57m1.95-1.635c.465.655 1.143.984 2.037.984.893 0 1.569-.329 2.027-.984.459-.655.687-1.61.687-2.865s-.228-2.207-.687-2.857c-.458-.65-1.134-.975-2.027-.975-.894 0-1.572.325-2.036.975-.463.65-.695 1.602-.695 2.857 0 1.254.232 2.21.695 2.865m10.432-1.087v-7.312c0-.357.338-.536 1.014-.536h.575c.676 0 1.015.18 1.015.536v7.144c0 .593.213 1.079.642 1.459s.98.571 1.657.571c.676 0 1.231-.191 1.665-.571s.651-.866.651-1.459v-7.144c0-.357.338-.536 1.015-.536h.558c.676 0 1.013.18 1.013.536v7.312c0 1.286-.428 2.284-1.284 2.993-.857.71-2.063 1.065-3.618 1.065-1.556 0-2.762-.355-3.618-1.065-.857-.71-1.285-1.707-1.285-2.993m12.84 3.516v-10.823c0-.36.338-.541 1.013-.541h.726c.54 0 .91.152 1.113.456l4.439 6.85v-6.765c0-.36.338-.541 1.013-.541h.49c.675 0 1.012.18 1.012.54v10.824c0 .361-.337.542-1.012.542h-.642c-.54 0-.912-.152-1.114-.457l-4.523-6.934v6.85c0 .36-.338.541-1.013.541h-.489c-.675 0-1.013-.181-1.013-.542m13.074-.125v-10.34c0-.444.224-.666.672-.666h3.76c1.736 0 3.065.503 3.988 1.51.924 1.005 1.386 2.448 1.386 4.326 0 1.88-.462 3.321-1.386 4.328-.923 1.006-2.252 1.51-3.988 1.51h-3.76c-.448 0-.672-.224-.672-.668zm2.603-1.518h1.83c.895 0 1.572-.31 2.031-.933.46-.622.688-1.529.688-2.719s-.229-2.095-.688-2.718c-.46-.623-1.136-.933-2.032-.933h-1.83v7.303zm10.004 1.518v-10.34c0-.444.22-.666.663-.666h6.061c.332 0 .498.278.498.833v.517c0 .556-.166.835-.498.835h-4.173v2.418h3.726c.332 0 .497.278.497.833v.517c0 .556-.165.834-.497.834h-3.726v2.701h4.19c.332 0 .497.279.497.835v.516c0 .557-.165.834-.497.834h-6.078c-.442 0-.663-.223-.663-.667m10.039 0v-10.34c0-.444.224-.666.672-.666h3.76c1.736 0 3.065.503 3.988 1.51.924 1.005 1.386 2.448 1.386 4.326 0 1.88-.462 3.321-1.386 4.328-.923 1.006-2.252 1.51-3.988 1.51h-3.76c-.448 0-.672-.224-.672-.668zm2.602-1.518h1.83c.896 0 1.573-.31 2.032-.933.458-.622.688-1.529.688-2.719s-.23-2.095-.688-2.718c-.46-.623-1.136-.933-2.032-.933h-1.83zm-88.749 19.137c0-.26.127-.577.383-.95.257-.372.474-.56.652-.56.067 0 .212.063.435.188.691.396 1.364.593 2.022.593 1.047 0 1.571-.413 1.571-1.238 0-.362-.167-.667-.501-.915a5.23 5.23 0 0 0 -1.212-.653 14.93 14.93 0 0 1 -1.412-.645c-.468-.243-.87-.619-1.203-1.127-.335-.509-.502-1.144-.502-1.907s.2-1.415.602-1.959c.724-.983 1.844-1.475 3.36-1.475.846 0 1.56.125 2.138.374.58.247.87.519.87.813 0 .249-.107.556-.318.924-.212.367-.412.551-.601.551-.046 0-.146-.04-.301-.119-.447-.203-.961-.305-1.547-.305-.584 0-.991.102-1.22.305a.98.98 0 0 0 -.342.763c0 .305.167.577.501.814.335.237.736.447 1.204.628.467.18.938.392 1.412.635s.877.62 1.212 1.127c.334.509.5 1.118.5 1.824s-.107 1.31-.325 1.814c-.217.502-.516.896-.894 1.178-.735.542-1.637.814-2.707.814s-1.968-.164-2.692-.491c-.724-.329-1.086-.662-1.086-1.001m11.431-.077c-.928-1.045-1.392-2.546-1.392-4.501s.464-3.456 1.391-4.501c.927-1.046 2.256-1.57 3.988-1.57 1.73 0 3.057.524 3.978 1.57.922 1.045 1.383 2.546 1.383 4.5 0 1.956-.461 3.457-1.383 4.502-.92 1.046-2.247 1.569-3.978 1.569-1.732 0-3.061-.523-3.988-1.57m1.952-1.635c.463.655 1.142.984 2.036.984.893 0 1.569-.329 2.026-.984.459-.655.688-1.61.688-2.865 0-1.256-.23-2.207-.688-2.857-.457-.65-1.133-.975-2.026-.975-.894 0-1.573.325-2.036.975s-.695 1.601-.695 2.857c0 1.254.232 2.21.695 2.865m10.432 2.293v-10.685c0-.362.333-.543.998-.543h.566c.665 0 .997.181.997.543v9.141h3.71c.333 0 .499.283.499.849v.525c0 .566-.166.848-.5.848h-5.604c-.445 0-.666-.226-.666-.678m9.338-3.38v-7.312c0-.357.338-.536 1.015-.536h.575c.676 0 1.014.18 1.014.536v7.144c0 .593.213 1.08.642 1.46s.98.57 1.657.57c.676 0 1.23-.19 1.665-.57.434-.38.65-.867.65-1.46v-7.144c0-.357.34-.536 1.015-.536h.558c.676 0 1.015.18 1.015.536v7.312c0 1.286-.429 2.284-1.285 2.994-.857.71-2.063 1.064-3.618 1.064-1.556 0-2.762-.355-3.618-1.064-.857-.71-1.285-1.708-1.285-2.994m15.286 3.515v-9.141h-2.646c-.333 0-.5-.283-.5-.849v-.526c0-.565.167-.847.5-.847h7.873c.333 0 .499.282.499.847v.526c0 .566-.166.849-.499.849h-2.647v9.141c0 .362-.333.543-.999.543h-.582c-.666 0-1-.18-1-.543m8.294-.013v-10.794c0-.371.332-.556.995-.556h.58c.663 0 .994.185.994.556v10.794c0 .37-.331.556-.994.556h-.58c-.663 0-.994-.185-.994-.556m6.994-.779c-.927-1.045-1.391-2.546-1.391-4.501s.464-3.456 1.391-4.501c.927-1.046 2.256-1.57 3.987-1.57s3.058.524 3.978 1.57c.922 1.045 1.383 2.546 1.383 4.5 0 1.956-.46 3.457-1.383 4.502-.92 1.046-2.247 1.569-3.978 1.569s-3.06-.523-3.987-1.57m1.951-1.635c.464.655 1.143.984 2.036.984s1.57-.329 2.027-.984c.458-.655.687-1.61.687-2.865 0-1.256-.229-2.207-.687-2.857s-1.134-.975-2.027-.975-1.572.325-2.036.975c-.463.65-.694 1.601-.694 2.857 0 1.254.231 2.21.694 2.865m10.666 2.43v-10.824c0-.36.338-.541 1.012-.541h.726c.54 0 .912.152 1.114.456l4.439 6.851v-6.766c0-.36.337-.541 1.012-.541h.49c.674 0 1.012.18 1.012.541v10.824c0 .36-.338.541-1.012.541h-.642c-.54 0-.911-.152-1.114-.456l-4.523-6.934v6.849c0 .36-.337.541-1.012.541h-.49c-.674 0-1.012-.18-1.012-.541m12.373-.717c0-.26.128-.577.384-.95.257-.372.474-.56.653-.56.067 0 .21.063.433.188.692.396 1.365.593 2.024.593 1.046 0 1.57-.413 1.57-1.238 0-.362-.167-.667-.5-.915a5.249 5.249 0 0 0 -1.213-.653 15.085 15.085 0 0 1 -1.412-.645c-.469-.243-.869-.619-1.203-1.127-.334-.509-.502-1.144-.502-1.907s.2-1.415.602-1.959c.724-.983 1.844-1.475 3.36-1.475.846 0 1.559.125 2.138.374.58.247.87.519.87.813 0 .249-.106.556-.318.924-.212.367-.412.551-.602.551-.044 0-.145-.04-.3-.119-.446-.203-.962-.305-1.547-.305-.584 0-.99.102-1.219.305a.978.978 0 0 0 -.343.763c0 .305.167.577.501.814s.736.447 1.204.628c.467.18.938.392 1.412.635s.877.62 1.211 1.127c.335.509.502 1.118.502 1.824s-.109 1.31-.326 1.814c-.217.502-.516.896-.894 1.178-.735.542-1.638.814-2.707.814-1.07 0-1.968-.164-2.692-.491-.724-.329-1.086-.662-1.086-1.001" fill="#483b2f"/><path d="m83.813 60.158v-10.823c0-.36.338-.541 1.013-.541h.726c.54 0 .91.152 1.114.457l4.438 6.849v-6.765c0-.36.338-.541 1.013-.541h.49c.675 0 1.012.18 1.012.541v10.823c0 .361-.337.542-1.012.542h-.642c-.54 0-.912-.152-1.114-.457l-4.523-6.934v6.85c0 .36-.338.541-1.013.541h-.49c-.674 0-1.012-.18-1.012-.542m15.175-.358v-10.339c0-.445.228-.667.684-.667h6.257c.342 0 .513.278.513.834v.517c0 .556-.171.834-.513.834h-4.308v2.418h3.846c.343 0 .514.278.514.833v.517c0 .557-.171.834-.514.834h-3.846v2.702h4.325c.342 0 .513.278.513.833v.517c0 .556-.17.834-.513.834h-6.274c-.456 0-.684-.222-.684-.667m14.586.357v-9.141h-2.647c-.332 0-.499-.283-.499-.85v-.524c0-.566.167-.848.5-.848h7.873c.332 0 .499.282.499.848v.525c0 .566-.167.849-.5.849h-2.646v9.14c0 .363-.333.544-.999.544h-.583c-.665 0-.998-.181-.998-.543m9.228-10.924c0-.293.346-.44 1.04-.44h.436c.672 0 1.047.175 1.125.524l1.26 5.447c.022.08.196.89.52 2.435.068-.45.257-1.262.57-2.435l1.378-5.615c.056-.238.363-.355.923-.355h.638c.56 0 .868.117.923.355l1.326 5.615c.19.823.38 1.674.571 2.553.078-.325.182-.785.311-1.378.128-.591.215-.983.26-1.175l1.31-5.447c.078-.349.453-.523 1.125-.523h.185c.693 0 1.04.146 1.04.439 0 .034-.011.118-.033.253l-2.737 10.859c-.067.237-.375.355-.923.355h-1.226c-.57 0-.879-.118-.924-.355l-1.645-7.002-1.712 7.002c-.068.237-.375.355-.923.355h-1.21c-.57 0-.878-.118-.922-.355l-2.653-10.859a.825.825 0 0 1 -.033-.253m20.301 9.899c-.927-1.046-1.39-2.545-1.39-4.502 0-1.955.463-3.455 1.39-4.5.927-1.046 2.256-1.57 3.987-1.57s3.058.524 3.98 1.57c.92 1.045 1.381 2.545 1.381 4.5 0 1.957-.46 3.456-1.382 4.502-.921 1.045-2.248 1.568-3.979 1.568s-3.06-.523-3.987-1.568m1.951-1.635c.464.655 1.143.982 2.036.982s1.57-.327 2.027-.982c.458-.657.688-1.612.688-2.867 0-1.254-.23-2.206-.688-2.856s-1.134-.976-2.027-.976-1.572.327-2.036.976c-.463.65-.694 1.602-.694 2.856 0 1.255.231 2.21.694 2.867m12.534 2.66v-10.685c0-.452.222-.678.666-.678h3.252c2.769 0 4.153 1.062 4.153 3.187 0 .634-.175 1.186-.526 1.655-.35.47-.825.817-1.425 1.043v.068c.21.08.427.268.65.568.222.3.406.63.55.992l1.468 3.731c.055.147.083.254.083.322 0 .227-.334.34-1 .34h-.684c-.556 0-.879-.119-.967-.357l-1.318-3.306c-.19-.373-.392-.637-.61-.79-.215-.153-.574-.228-1.074-.228h-.65v4.138c0 .362-.334.543-1 .543h-.568c-.667 0-1-.181-1-.543zm2.567-6.394h1.585c.344 0 .645-.14.9-.424.256-.283.384-.625.384-1.026 0-.4-.125-.718-.376-.95-.25-.232-.591-.347-1.025-.347h-1.468zm11.082 6.291v-10.783c0-.36.333-.54.998-.54h.583c.664 0 .997.18.997.54v4.515l.067.018 2.893-4.752c.122-.214.455-.32.998-.32h.782c.62 0 .931.084.931.253 0 .101-.044.218-.133.354l-3.21 4.986 3.643 5.661c.088.136.132.253.132.355 0 .168-.31.253-.93.253h-.965c-.555 0-.894-.106-1.015-.32l-3.126-5.123-.067.017v4.886c0 .36-.333.54-.997.54h-.583c-.665 0-.998-.18-.998-.54" fill="#f7941e"/></g></svg>